<svg width="166" height="46" viewBox="0 0 166 46" fill="none" xmlns="http://www.w3.org/2000/svg">
<path d="M23.1181 45.7808C27.6905 45.7808 32.1601 44.4475 35.9619 41.9495C39.7637 39.4516 42.7268 35.9011 44.4765 31.7472C46.2263 27.5933 46.6841 23.0224 45.7921 18.6126C44.9001 14.2028 42.6983 10.1521 39.4651 6.97285C36.232 3.79356 32.1128 1.62844 27.6283 0.751274C23.1438 -0.125889 18.4955 0.324303 14.2712 2.04492C10.0469 3.76554 6.43636 6.6793 3.89611 10.4178C1.35586 14.1562 0 18.5514 0 23.0476C0 29.0768 2.43566 34.8591 6.77115 39.1224C11.1066 43.3857 16.9868 45.7808 23.1181 45.7808Z" fill="#D21D01"/>
<path d="M20.2702 17.509H29.3914C30.2824 17.5063 31.1361 17.157 31.7661 16.5375C32.3961 15.918 32.7513 15.0785 32.754 14.2024V13.665C32.7513 12.7889 32.3961 11.9494 31.7661 11.3299C31.1361 10.7104 30.2824 10.3611 29.3914 10.3584H20.2702C15.5205 11.3504 11.9897 15.1117 11.9897 19.617V26.5609C11.9897 31.0662 15.5205 34.8275 20.2702 35.8195H29.3914C30.2824 35.8168 31.1361 35.4675 31.7661 34.848C32.3961 34.2285 32.7513 33.389 32.754 32.5129V31.9755C32.7513 31.0994 32.3961 30.2599 31.7661 29.6404C31.1361 29.0209 30.2824 28.6716 29.3914 28.6689H20.2702V17.509Z" fill="white"/>
<path d="M61.4517 16.1399C61.1308 15.8021 60.7608 15.5131 60.3536 15.2822C59.9979 15.0777 59.594 14.9682 59.1819 14.9644C58.6747 14.9559 58.1718 15.0564 57.7082 15.2589C57.2874 15.4445 56.9066 15.7076 56.5864 16.0339C56.2859 16.3655 56.0491 16.748 55.8876 17.1628C55.59 18.0221 55.59 18.9541 55.8876 19.8133C56.0491 20.2281 56.2859 20.6106 56.5864 20.9422C56.9073 21.2678 57.2879 21.5307 57.7082 21.7172C58.1718 21.9197 58.6747 22.0202 59.1819 22.0117C59.6276 22.0186 60.0694 21.9305 60.4771 21.7534C60.8784 21.5551 61.2287 21.2698 61.5016 20.919L63.4956 23.0295C63.1855 23.3326 62.8314 23.5885 62.4447 23.789C62.0713 23.9983 61.678 24.1713 61.2704 24.3057C60.8977 24.4268 60.5142 24.5133 60.125 24.564C59.8124 24.6236 59.4951 24.6565 59.1767 24.6622C58.308 24.6674 57.4455 24.5177 56.6311 24.2205C55.8628 23.9443 55.1588 23.5191 54.5609 22.9701C53.9711 22.4191 53.4963 21.76 53.1633 21.0301C52.8231 20.2221 52.6533 19.3547 52.6642 18.4803C52.6519 17.6134 52.8218 16.7532 53.1633 15.9539C53.492 15.2147 53.9671 14.5472 54.5609 13.9905C55.1588 13.4416 55.8628 13.0164 56.6311 12.7402C57.4455 12.443 58.308 12.2933 59.1767 12.2985C59.9645 12.3071 60.7435 12.4623 61.4727 12.7557C62.2559 13.0355 62.9583 13.4983 63.5192 14.1042L61.4517 16.1399Z" fill="white"/>
<path d="M73.0327 22.7633H72.9565C72.5644 23.4 71.9932 23.9114 71.3119 24.2358C70.6203 24.5354 69.8714 24.6861 69.1157 24.6775C68.5676 24.6773 68.0221 24.6025 67.4948 24.4554C66.9938 24.3155 66.521 24.0918 66.0972 23.794C65.6971 23.4986 65.3657 23.1225 65.1252 22.691C64.8665 22.2147 64.7371 21.6808 64.7495 21.141C64.7331 20.5822 64.8529 20.0277 65.0989 19.5238C65.3174 19.0842 65.6334 18.6985 66.0237 18.3949C66.4364 18.0769 66.8998 17.8282 67.395 17.6587C67.9126 17.4782 68.4466 17.3468 68.9896 17.266C69.5503 17.1685 70.1175 17.1115 70.6867 17.0955C71.2524 17.0628 71.7848 17.0464 72.2839 17.0464H73.0327V16.7261C73.0551 16.4102 72.9957 16.0938 72.8602 15.8065C72.7247 15.5192 72.5174 15.2703 72.2577 15.0831C71.6812 14.6885 70.9891 14.4907 70.2874 14.5199C69.6795 14.5148 69.077 14.6317 68.5167 14.8635C67.9889 15.0628 67.506 15.3621 67.0955 15.7444L65.5193 14.1944C66.164 13.5371 66.9594 13.0411 67.839 12.7478C68.7315 12.4542 69.6667 12.305 70.6079 12.306C71.3406 12.2889 72.0711 12.3911 72.7699 12.6083C73.289 12.7577 73.7766 12.9975 74.2096 13.3161C74.5765 13.5908 74.8748 13.9442 75.0818 14.3494C75.2924 14.7078 75.444 15.0967 75.531 15.5016C75.6295 15.8796 75.6885 16.2665 75.707 16.6563C75.7228 17.0154 75.7306 17.3332 75.7306 17.6122V24.383H73.0327V22.7633ZM72.8566 19.1079H72.2445C71.8295 19.1079 71.3618 19.126 70.8469 19.157C70.3487 19.1923 69.8556 19.2789 69.3758 19.4153C68.9592 19.515 68.5682 19.6989 68.2278 19.9552C68.0726 20.0677 67.9482 20.2162 67.8657 20.3875C67.7831 20.5588 67.7451 20.7476 67.7549 20.9369C67.7472 21.1847 67.8071 21.4299 67.9283 21.6473C68.0653 21.8309 68.2342 21.9892 68.4274 22.1149C68.6353 22.2474 68.8631 22.3468 69.1026 22.4094C69.3482 22.4579 69.5981 22.4821 69.8487 22.4817C70.8802 22.4817 71.6377 22.2449 72.1211 21.7713C72.3756 21.507 72.5729 21.1946 72.7011 20.8532C72.8294 20.5117 72.8858 20.1483 72.8671 19.7847L72.8566 19.1079Z" fill="white"/>
<path d="M79.2505 5.8374H82.2453V24.383H79.2505V5.8374Z" fill="white"/>
<path d="M93.4157 22.7633H93.3395C92.9465 23.4001 92.3744 23.9115 91.6923 24.2357C91.0017 24.5356 90.2536 24.6863 89.4987 24.6775C88.9506 24.6772 88.4051 24.6025 87.8778 24.4553C87.3766 24.316 86.9037 24.0923 86.4802 23.794C86.0793 23.4986 85.747 23.1226 85.5056 22.6909C85.2489 22.214 85.1205 21.6804 85.1326 21.1409C85.1149 20.5821 85.2348 20.0273 85.482 19.5238C85.7004 19.0849 86.0153 18.6993 86.4041 18.3949C86.8178 18.0769 87.282 17.8281 87.778 17.6586C88.2956 17.4779 88.8295 17.3464 89.3726 17.266C89.9333 17.1684 90.5005 17.1114 91.0697 17.0955C91.6337 17.0627 92.1661 17.0464 92.667 17.0464H93.4157V16.726C93.4376 16.4102 93.378 16.094 93.2426 15.8068C93.1071 15.5196 92.9001 15.2706 92.6407 15.0831C92.0643 14.6884 91.3721 14.4906 90.6704 14.5199C90.0624 14.5156 89.4599 14.6334 88.8998 14.8661C88.3719 15.0654 87.8891 15.3647 87.4785 15.747L85.9023 14.197C86.5484 13.5401 87.3445 13.0441 88.2246 12.7503C89.1171 12.4565 90.0523 12.3073 90.9935 12.3086C91.7196 12.2912 92.4437 12.3907 93.1372 12.6031C93.6601 12.7535 94.1513 12.995 94.5873 13.3161C94.9529 13.5922 95.2509 13.9452 95.4595 14.3494C95.6701 14.7078 95.8217 15.0966 95.9087 15.5016C96.0059 15.8798 96.0649 16.2666 96.0848 16.6563C96.1005 17.0154 96.1084 17.3331 96.1084 17.6121V24.383H93.4157V22.7633ZM93.2397 19.1079H92.617C92.1993 19.1079 91.7344 19.1259 91.2195 19.1569C90.7212 19.1922 90.2282 19.2788 89.7483 19.4153C89.3317 19.515 88.9407 19.6988 88.6003 19.9552C88.4448 20.0675 88.32 20.216 88.237 20.3872C88.1541 20.5585 88.1155 20.7473 88.1248 20.9368C88.118 21.1848 88.1788 21.4301 88.3008 21.6473C88.4376 21.8249 88.6047 21.9779 88.7947 22.0993C89.0016 22.2319 89.2286 22.3313 89.4672 22.3938C89.7137 22.4422 89.9645 22.4664 90.2159 22.4662C91.2492 22.4662 92.0058 22.2294 92.4857 21.7558C92.741 21.4919 92.9391 21.1797 93.0678 20.8382C93.1965 20.4967 93.2532 20.1329 93.2344 19.7692L93.2397 19.1079Z" fill="white"/>
<path d="M105.965 15.8708C105.708 15.4923 105.359 15.1837 104.949 14.9737C104.539 14.7637 104.081 14.659 103.619 14.6695C103.21 14.6722 102.807 14.7733 102.447 14.964C102.266 15.0497 102.115 15.1862 102.013 15.3564C101.911 15.5266 101.863 15.7227 101.874 15.9198C101.869 16.0802 101.91 16.2387 101.994 16.3763C102.078 16.5138 102.201 16.6245 102.347 16.6948C102.728 16.8811 103.13 17.0207 103.545 17.1107L105.093 17.4802C105.644 17.5884 106.175 17.7783 106.669 18.0433C107.147 18.2873 107.558 18.6419 107.867 19.0766C108.209 19.6176 108.374 20.2488 108.34 20.885C108.36 21.5139 108.195 22.1353 107.867 22.6752C107.567 23.1483 107.156 23.5435 106.669 23.8274C106.161 24.131 105.604 24.3468 105.022 24.4654C104.418 24.5954 103.801 24.6612 103.183 24.6618C102.31 24.6702 101.442 24.5376 100.613 24.2691C99.7966 23.9867 99.0712 23.4954 98.5117 22.8457L100.506 21.0064C100.863 21.4107 101.275 21.7653 101.73 22.0604C102.224 22.3344 102.784 22.4702 103.351 22.453C103.577 22.4524 103.802 22.4282 104.023 22.3807C104.252 22.3291 104.471 22.2419 104.672 22.1224C104.859 22.018 105.022 21.8753 105.148 21.7039C105.28 21.5264 105.35 21.3116 105.347 21.0916C105.358 20.9124 105.32 20.7337 105.236 20.5741C105.152 20.4146 105.027 20.2801 104.872 20.1849C104.501 19.9668 104.096 19.8089 103.674 19.7173C103.193 19.5881 102.668 19.459 102.098 19.3737C101.562 19.2641 101.043 19.0906 100.55 18.8571C100.078 18.6181 99.6685 18.274 99.355 17.8522C99.0094 17.3279 98.8429 16.7089 98.8795 16.0852C98.864 15.4969 99.0014 14.9145 99.2788 14.3931C99.5494 13.9166 99.9245 13.5054 100.377 13.1893C100.85 12.8828 101.376 12.6632 101.93 12.5409C102.508 12.3956 103.103 12.3219 103.7 12.3213C104.507 12.3242 105.307 12.4649 106.065 12.7372C106.828 12.9878 107.492 13.4687 107.961 14.1115L105.965 15.8708Z" fill="white"/>
<path d="M113.906 14.2512H113.956C114.234 13.709 114.656 13.251 115.178 12.926C115.861 12.4942 116.663 12.2804 117.474 12.3138C118.169 12.2934 118.859 12.4276 119.494 12.7064C120.026 12.9428 120.495 13.2964 120.866 13.7398C121.219 14.1722 121.475 14.6743 121.614 15.2122C121.765 15.7806 121.84 16.3659 121.838 16.9534V24.3856H118.845V18.4207C118.845 18.0952 118.83 17.7361 118.795 17.3435C118.767 16.9549 118.673 16.5736 118.52 16.2146C118.395 15.865 118.171 15.5582 117.873 15.3311C117.523 15.0686 117.089 14.9384 116.649 14.9642C116.211 14.9551 115.776 15.0434 115.378 15.2226C115.05 15.3809 114.761 15.6064 114.529 15.8839C114.31 16.1695 114.15 16.4941 114.056 16.8397C113.955 17.2078 113.905 17.5875 113.906 17.9686V24.3959H110.912V5.8374H113.906V14.2512Z" fill="white"/>
<path d="M124.888 18.4954C124.874 17.6283 125.044 16.7679 125.387 15.9689C125.711 15.2283 126.185 14.561 126.782 14.0082C127.378 13.4554 128.084 13.029 128.855 12.7553C130.498 12.1662 132.3 12.1662 133.943 12.7553C134.712 13.0314 135.416 13.4566 136.014 14.0056C136.606 14.558 137.073 15.227 137.385 15.9689C137.744 16.7637 137.923 17.6257 137.91 18.4954C137.921 19.3723 137.742 20.2416 137.385 21.0451C137.069 21.7779 136.602 22.4384 136.014 22.9852C135.416 23.5341 134.712 23.9593 133.943 24.2355C132.3 24.8245 130.498 24.8245 128.855 24.2355C128.086 23.9599 127.382 23.5347 126.785 22.9852C126.194 22.4348 125.719 21.7756 125.387 21.0451C125.046 20.2375 124.876 19.3698 124.888 18.4954ZM127.88 18.4954C127.88 18.9464 127.956 19.3944 128.106 19.8206C128.267 20.2359 128.503 20.6186 128.805 20.9495C129.125 21.2757 129.506 21.5387 129.927 21.7245C130.392 21.9188 130.893 22.019 131.399 22.019C131.905 22.019 132.406 21.9188 132.872 21.7245C133.286 21.5416 133.659 21.2779 133.967 20.9495C134.28 20.6273 134.519 20.2421 134.666 19.8206C134.999 18.9674 134.999 18.0233 134.666 17.1701C134.519 16.7486 134.28 16.3635 133.967 16.0412C133.66 15.712 133.287 15.4483 132.872 15.2662C132.406 15.0719 131.905 14.9718 131.399 14.9718C130.893 14.9718 130.392 15.0719 129.927 15.2662C129.506 15.4512 129.125 15.7143 128.805 16.0412C128.503 16.3721 128.267 16.7548 128.106 17.1701C127.956 17.5963 127.88 18.0443 127.88 18.4954Z" fill="white"/>
<path d="M149.143 16.1399C148.822 15.8021 148.452 15.5131 148.045 15.2822C147.69 15.0777 147.286 14.9682 146.874 14.9644C146.367 14.9556 145.865 15.0562 145.402 15.2589C144.981 15.4445 144.599 15.7075 144.278 16.0339C143.978 16.3655 143.741 16.748 143.579 17.1628C143.282 18.0221 143.282 18.9541 143.579 19.8133C143.741 20.2281 143.978 20.6106 144.278 20.9422C144.6 21.2677 144.982 21.5306 145.402 21.7172C145.865 21.92 146.367 22.0205 146.874 22.0117C147.32 22.0184 147.763 21.9302 148.171 21.7534C148.572 21.555 148.921 21.2696 149.193 20.919L151.19 23.0295C150.879 23.3319 150.525 23.5878 150.139 23.789C149.766 23.9978 149.374 24.1708 148.967 24.3057C148.594 24.4268 148.209 24.5133 147.819 24.564C147.507 24.6237 147.189 24.6566 146.871 24.6622C146.002 24.6674 145.14 24.5177 144.325 24.2205C143.557 23.9436 142.854 23.5185 142.255 22.9701C141.665 22.4196 141.191 21.7604 140.86 21.0301C140.519 20.2225 140.349 19.3548 140.361 18.4803C140.347 17.6132 140.517 16.7529 140.86 15.9539C141.183 15.2131 141.657 14.5455 142.253 13.9926C142.849 13.4397 143.554 13.0134 144.325 12.7402C145.14 12.443 146.002 12.2933 146.871 12.2985C147.658 12.3028 148.437 12.4526 149.167 12.7402C149.949 13.0201 150.651 13.4829 151.211 14.0887L149.143 16.1399Z" fill="white"/>
<path d="M153.244 5.8374H156.239V17.4907L160.855 12.6083H164.695L159.557 17.966L165.019 24.3933H161.054L156.289 18.382H156.239V24.3933H153.244V5.8374Z" fill="white"/>
<path d="M56.6797 34.3877C56.5566 34.2026 56.3828 34.046 56.1583 33.9179C55.941 33.7898 55.6911 33.7257 55.4086 33.7257C55.1117 33.7186 54.8437 33.7648 54.6047 33.8645C54.3729 33.9642 54.1738 34.103 54.0072 34.2809C53.8406 34.4589 53.7138 34.6725 53.6269 34.9216C53.54 35.1637 53.4966 35.427 53.4966 35.7118C53.4966 35.9965 53.54 36.2635 53.6269 36.5126C53.7138 36.7547 53.8406 36.9647 54.0072 37.1426C54.1738 37.3206 54.3729 37.4594 54.6047 37.5591C54.8437 37.6587 55.1117 37.705 55.4086 37.6979C55.6911 37.6979 55.941 37.6338 56.1583 37.5057C56.3828 37.3776 56.5566 37.2209 56.6797 37.0359L57.2664 37.4737C57.0129 37.7655 56.7268 37.9826 56.4081 38.125C56.0895 38.2603 55.7563 38.3315 55.4086 38.3386C54.9958 38.3457 54.6228 38.2852 54.2896 38.157C53.9565 38.0218 53.6704 37.8367 53.4314 37.6018C53.1996 37.3669 53.0222 37.0892 52.899 36.7689C52.7759 36.4415 52.7144 36.0891 52.7144 35.7118C52.7144 35.3345 52.7759 34.9857 52.899 34.6653C53.0222 34.3379 53.1996 34.0567 53.4314 33.8218C53.6704 33.5869 53.9565 33.4053 54.2896 33.2772C54.6228 33.142 54.9958 33.0779 55.4086 33.085C55.7563 33.0921 56.0895 33.1669 56.4081 33.3092C56.7268 33.4445 57.0129 33.6581 57.2664 33.9499L56.6797 34.3877Z" fill="white"/>
<path d="M62.6813 35.7118C62.6813 35.4342 62.6342 35.1743 62.5401 34.9323C62.4531 34.6903 62.3264 34.4803 62.1598 34.3023C61.9932 34.1243 61.7904 33.9855 61.5514 33.8859C61.3197 33.7791 61.0553 33.7257 60.7583 33.7257C60.4614 33.7257 60.1934 33.7791 59.9544 33.8859C59.7226 33.9855 59.5235 34.1243 59.3569 34.3023C59.1975 34.4803 59.0708 34.6903 58.9766 34.9323C58.8897 35.1743 58.8463 35.4342 58.8463 35.7118C58.8463 35.9894 58.8897 36.2492 58.9766 36.4913C59.0708 36.7333 59.1975 36.9433 59.3569 37.1213C59.5235 37.2992 59.7226 37.4416 59.9544 37.5484C60.1934 37.6481 60.4614 37.6979 60.7583 37.6979C61.0553 37.6979 61.3197 37.6481 61.5514 37.5484C61.7904 37.4416 61.9932 37.2992 62.1598 37.1213C62.3264 36.9433 62.4531 36.7333 62.5401 36.4913C62.6342 36.2492 62.6813 35.9894 62.6813 35.7118ZM63.4635 35.7118C63.4635 36.0891 63.3947 36.4379 63.2571 36.7582C63.1267 37.0786 62.942 37.3562 62.703 37.5911C62.464 37.826 62.1779 38.0111 61.8448 38.1464C61.5188 38.2745 61.1567 38.3386 60.7583 38.3386C60.3672 38.3386 60.0051 38.2745 59.6719 38.1464C59.346 38.0111 59.0636 37.826 58.8245 37.5911C58.5855 37.3562 58.3972 37.0786 58.2596 36.7582C58.1292 36.4379 58.0641 36.0891 58.0641 35.7118C58.0641 35.3345 58.1292 34.9857 58.2596 34.6653C58.3972 34.345 58.5855 34.0674 58.8245 33.8325C59.0636 33.5975 59.346 33.416 59.6719 33.2879C60.0051 33.1526 60.3672 33.085 60.7583 33.085C61.1567 33.085 61.5188 33.1526 61.8448 33.2879C62.1779 33.416 62.464 33.5975 62.703 33.8325C62.942 34.0674 63.1267 34.345 63.2571 34.6653C63.3947 34.9857 63.4635 35.3345 63.4635 35.7118Z" fill="white"/>
<path d="M64.8734 34.3237C64.8734 34.1386 64.8661 33.9535 64.8516 33.7684C64.8444 33.5833 64.8335 33.3982 64.819 33.2131H65.5904V33.9713H65.6121C65.7859 33.6794 66.025 33.4587 66.3292 33.3092C66.6406 33.1598 66.9484 33.085 67.2526 33.085C67.3902 33.085 67.5351 33.0992 67.6872 33.1277C67.8465 33.1562 67.9986 33.2096 68.1434 33.2879C68.2883 33.3591 68.4223 33.4623 68.5454 33.5975C68.6758 33.7328 68.7844 33.9072 68.8713 34.1208C69.0162 33.8004 69.2443 33.5477 69.5558 33.3626C69.8745 33.1775 70.204 33.085 70.5444 33.085C71.1963 33.085 71.6779 33.2559 71.9893 33.5975C72.3008 33.9321 72.4565 34.4126 72.4565 35.0391V38.2104H71.7395V35.2953C71.7395 34.7899 71.6489 34.402 71.4679 34.1314C71.2868 33.8609 70.95 33.7257 70.4575 33.7257C70.1895 33.7257 69.965 33.7791 69.7839 33.8859C69.6029 33.9855 69.4544 34.1208 69.3385 34.2916C69.2299 34.4625 69.1502 34.6582 69.0995 34.8789C69.0488 35.0925 69.0234 35.3167 69.0234 35.5516V38.2104H68.3064V35.2953C68.3064 34.7899 68.2159 34.402 68.0348 34.1314C67.8537 33.8609 67.517 33.7257 67.0245 33.7257C66.981 33.7257 66.8796 33.7399 66.7203 33.7684C66.5682 33.7969 66.4088 33.8752 66.2422 34.0033C66.0757 34.1314 65.9236 34.3237 65.7859 34.5799C65.6556 34.8362 65.5904 35.1921 65.5904 35.6477V38.2104H64.8734V34.3237Z" fill="white"/>
<path d="M74.2334 34.3237C74.2334 34.1386 74.2262 33.9535 74.2117 33.7684C74.2045 33.5833 74.1936 33.3982 74.1791 33.2131H74.9505V33.9713H74.9722C75.146 33.6794 75.385 33.4587 75.6892 33.3092C76.0007 33.1598 76.3085 33.085 76.6127 33.085C76.7503 33.085 76.8951 33.0992 77.0472 33.1277C77.2066 33.1562 77.3587 33.2096 77.5035 33.2879C77.6484 33.3591 77.7824 33.4623 77.9055 33.5975C78.0359 33.7328 78.1445 33.9072 78.2314 34.1208C78.3763 33.8004 78.6044 33.5477 78.9158 33.3626C79.2345 33.1775 79.5641 33.085 79.9045 33.085C80.5563 33.085 81.038 33.2559 81.3494 33.5975C81.6608 33.9321 81.8166 34.4126 81.8166 35.0391V38.2104H81.0995V35.2953C81.0995 34.7899 81.009 34.402 80.8279 34.1314C80.6469 33.8609 80.3101 33.7257 79.8176 33.7257C79.5496 33.7257 79.3251 33.7791 79.144 33.8859C78.9629 33.9855 78.8145 34.1208 78.6986 34.2916C78.5899 34.4625 78.5103 34.6582 78.4596 34.8789C78.4089 35.0925 78.3835 35.3167 78.3835 35.5516V38.2104H77.6665V35.2953C77.6665 34.7899 77.5759 34.402 77.3949 34.1314C77.2138 33.8609 76.877 33.7257 76.3845 33.7257C76.3411 33.7257 76.2397 33.7399 76.0803 33.7684C75.9282 33.7969 75.7689 33.8752 75.6023 34.0033C75.4357 34.1314 75.2836 34.3237 75.146 34.5799C75.0156 34.8362 74.9505 35.1921 74.9505 35.6477V38.2104H74.2334V34.3237Z" fill="white"/>
<path d="M87.548 35.3274C87.548 34.8504 87.4032 34.466 87.1135 34.1742C86.8238 33.8752 86.4182 33.7257 85.8967 33.7257C85.6649 33.7257 85.4404 33.772 85.2231 33.8645C85.0058 33.9499 84.8139 34.0674 84.6473 34.2169C84.488 34.3664 84.3576 34.5372 84.2562 34.7294C84.1621 34.9216 84.115 35.1209 84.115 35.3274H87.548ZM84.0933 35.904C84.115 36.1531 84.1765 36.3881 84.2779 36.6087C84.3793 36.8294 84.5133 37.0216 84.6799 37.1854C84.8465 37.342 85.0384 37.4665 85.2557 37.5591C85.473 37.6516 85.7084 37.6979 85.9619 37.6979C86.3457 37.6979 86.6753 37.6125 86.9505 37.4416C87.233 37.2637 87.4466 37.0608 87.5915 36.833L88.1456 37.2815C87.8414 37.6587 87.5046 37.9292 87.1352 38.093C86.7731 38.2567 86.382 38.3386 85.9619 38.3386C85.5853 38.3386 85.234 38.2745 84.9081 38.1464C84.5894 38.0111 84.3142 37.826 84.0824 37.5911C83.8506 37.3562 83.6659 37.0786 83.5283 36.7582C83.398 36.4379 83.3328 36.0891 83.3328 35.7118C83.3328 35.3345 83.398 34.9857 83.5283 34.6653C83.6587 34.345 83.8398 34.0674 84.0715 33.8325C84.3033 33.5975 84.5749 33.416 84.8863 33.2879C85.1978 33.1526 85.5346 33.085 85.8967 33.085C86.2806 33.085 86.6246 33.1526 86.9288 33.2879C87.233 33.4231 87.4865 33.6047 87.6893 33.8325C87.8993 34.0531 88.0586 34.3165 88.1673 34.6226C88.2759 34.9216 88.3302 35.242 88.3302 35.5837V35.904H84.0933Z" fill="white"/>
<path d="M89.815 34.7721C89.815 34.5514 89.8077 34.3272 89.7932 34.0994C89.786 33.8716 89.7788 33.5762 89.7715 33.2131H90.4777V34.1421H90.4994C90.5501 34.0069 90.6225 33.8787 90.7167 33.7577C90.8108 33.6296 90.9231 33.5157 91.0535 33.416C91.1911 33.3164 91.3468 33.2381 91.5206 33.1811C91.7017 33.117 91.9045 33.085 92.129 33.085C92.3318 33.085 92.5093 33.1064 92.6614 33.1491L92.5201 33.8431C92.426 33.8075 92.2884 33.7898 92.1073 33.7898C91.8321 33.7898 91.5967 33.8431 91.4011 33.9499C91.2056 34.0496 91.0426 34.1813 90.9122 34.345C90.7819 34.5016 90.6841 34.6725 90.6189 34.8576C90.561 35.0426 90.532 35.2206 90.532 35.3915V38.2104H89.815V34.7721Z" fill="white"/>
<path d="M96.9684 34.3877C96.8453 34.2026 96.6715 34.046 96.447 33.9179C96.2297 33.7898 95.9798 33.7257 95.6973 33.7257C95.4004 33.7186 95.1324 33.7648 94.8934 33.8645C94.6616 33.9642 94.4625 34.103 94.2959 34.2809C94.1293 34.4589 94.0026 34.6725 93.9156 34.9216C93.8287 35.1637 93.7853 35.427 93.7853 35.7118C93.7853 35.9965 93.8287 36.2635 93.9156 36.5126C94.0026 36.7547 94.1293 36.9647 94.2959 37.1426C94.4625 37.3206 94.6616 37.4594 94.8934 37.5591C95.1324 37.6587 95.4004 37.705 95.6973 37.6979C95.9798 37.6979 96.2297 37.6338 96.447 37.5057C96.6715 37.3776 96.8453 37.2209 96.9684 37.0359L97.5551 37.4737C97.3016 37.7655 97.0155 37.9826 96.6968 38.125C96.3782 38.2603 96.045 38.3315 95.6973 38.3386C95.2845 38.3457 94.9115 38.2852 94.5784 38.157C94.2452 38.0218 93.9591 37.8367 93.7201 37.6018C93.4883 37.3669 93.3109 37.0892 93.1878 36.7689C93.0646 36.4415 93.0031 36.0891 93.0031 35.7118C93.0031 35.3345 93.0646 34.9857 93.1878 34.6653C93.3109 34.3379 93.4883 34.0567 93.7201 33.8218C93.9591 33.5869 94.2452 33.4053 94.5784 33.2772C94.9115 33.142 95.2845 33.0779 95.6973 33.085C96.045 33.0921 96.3782 33.1669 96.6968 33.3092C97.0155 33.4445 97.3016 33.6581 97.5551 33.9499L96.9684 34.3877Z" fill="white"/>
<path d="M102.568 35.3274C102.568 34.8504 102.423 34.466 102.133 34.1742C101.844 33.8752 101.438 33.7257 100.917 33.7257C100.685 33.7257 100.46 33.772 100.243 33.8645C100.026 33.9499 99.8339 34.0674 99.6673 34.2169C99.508 34.3664 99.3776 34.5372 99.2762 34.7294C99.1821 34.9216 99.135 35.1209 99.135 35.3274H102.568ZM99.1132 35.904C99.135 36.1531 99.1965 36.3881 99.2979 36.6087C99.3993 36.8294 99.5333 37.0216 99.6999 37.1854C99.8665 37.342 100.058 37.4665 100.276 37.5591C100.493 37.6516 100.728 37.6979 100.982 37.6979C101.366 37.6979 101.695 37.6125 101.971 37.4416C102.253 37.2637 102.467 37.0608 102.611 36.833L103.166 37.2815C102.861 37.6587 102.525 37.9292 102.155 38.093C101.793 38.2567 101.402 38.3386 100.982 38.3386C100.605 38.3386 100.254 38.2745 99.9281 38.1464C99.6094 38.0111 99.3342 37.826 99.1024 37.5911C98.8706 37.3562 98.6859 37.0786 98.5483 36.7582C98.4179 36.4379 98.3528 36.0891 98.3528 35.7118C98.3528 35.3345 98.4179 34.9857 98.5483 34.6653C98.6787 34.345 98.8598 34.0674 99.0915 33.8325C99.3233 33.5975 99.5949 33.416 99.9063 33.2879C100.218 33.1526 100.555 33.085 100.917 33.085C101.301 33.085 101.645 33.1526 101.949 33.2879C102.253 33.4231 102.506 33.6047 102.709 33.8325C102.919 34.0531 103.079 34.3165 103.187 34.6226C103.296 34.9216 103.35 35.242 103.35 35.5837V35.904H99.1132Z" fill="white"/>
</svg>
